<svg width="40" height="40" viewBox="0 0 40 40" fill="none" xmlns="http://www.w3.org/2000/svg">
<g clip-path="url(#clip0_102_1222)">
<path fill-rule="evenodd" clip-rule="evenodd" d="M7.36049 7.75197L7.96278 9.00265L6.60941 8.69375C3.69893 8.02945 0.801008 9.85034 0.136711 12.7608C-0.527586 15.6713 1.29331 18.5692 4.20378 19.2335L5.55718 19.5424L4.47186 20.4079C2.13784 22.2693 1.75464 25.6702 3.61596 28.0043C5.47728 30.3383 8.87828 30.7215 11.2123 28.8602L12.2976 27.9947V29.3829C12.2976 32.3682 14.7177 34.7883 17.703 34.7883C20.6883 34.7883 23.1084 32.3682 23.1084 29.3828V27.9947L24.1937 28.8602C26.5278 30.7215 29.9288 30.3383 31.7901 28.0043C33.6514 25.6703 33.2682 22.2693 30.9342 20.408L29.8489 19.5425L31.2022 19.2336C34.1127 18.5693 35.9335 15.6714 35.2693 12.7609C34.605 9.85041 31.707 8.02953 28.7966 8.69383L27.4432 9.00272L28.0455 7.752C29.3408 5.06232 28.2104 1.83186 25.5207 0.536579C22.831 -0.758704 19.6006 0.371684 18.3053 3.06137L17.703 4.31205L17.1007 3.06133C15.8054 0.371649 12.575 -0.758736 9.88527 0.536547C7.19558 1.83183 6.0652 5.06229 7.36049 7.75197Z" fill="white"/>
<path fill-rule="evenodd" clip-rule="evenodd" d="M12.3375 20.9803C11.9392 20.6525 11.6322 20.2226 11.4527 19.7357L11.4459 19.7272C10.5735 18.6332 10.6168 17.1039 11.4716 16.065C11.4218 15.5516 11.5087 15.0306 11.726 14.5594L11.7273 14.5485C11.8839 13.158 12.996 12.1073 14.335 11.9771C14.6628 11.5788 15.0927 11.2718 15.5796 11.0924L15.5881 11.0856C16.6821 10.2131 18.2114 10.2565 19.2503 11.1112C19.7637 11.0614 20.2848 11.1483 20.7559 11.3657L20.7668 11.3669C22.1572 11.5236 23.208 12.6356 23.3382 13.9746C23.7365 14.3024 24.0435 14.7323 24.223 15.2192L24.2298 15.2277C25.1022 16.3217 25.0589 17.851 24.2041 18.8899C24.254 19.4033 24.167 19.9243 23.9497 20.3954L23.9484 20.4064C23.7918 21.7969 22.6797 22.8476 21.3407 22.9778C21.0129 23.3761 20.583 23.6831 20.0961 23.8625L20.0876 23.8693C18.9936 24.7418 17.4643 24.6984 16.4254 23.8437C15.912 23.8935 15.391 23.8066 14.9198 23.5892L14.9089 23.588C13.5185 23.4313 12.4677 22.3193 12.3375 20.9803ZM16.9911 15.3439C16.8622 15.4468 16.7668 15.5762 16.7067 15.7181C16.215 15.7045 15.7865 16.0698 15.7305 16.5676C15.712 16.7315 15.7361 16.8903 15.7939 17.0332C15.4366 17.3713 15.392 17.9326 15.7043 18.3242C15.8071 18.4531 15.9365 18.5485 16.0784 18.6086C16.0648 19.1003 16.4301 19.5288 16.9279 19.5848C17.0918 19.6033 17.2507 19.5792 17.3935 19.5214C17.7316 19.8787 18.2929 19.9233 18.6845 19.611C18.8135 19.5082 18.9088 19.3788 18.9689 19.2369C19.4606 19.2505 19.8891 18.8851 19.9452 18.3874C19.9636 18.2235 19.9396 18.0646 19.8817 17.9218C20.239 17.5837 20.2837 17.0224 19.9714 16.6307C19.8685 16.5018 19.7391 16.4065 19.5972 16.3464C19.6108 15.8547 19.2455 15.4262 18.7477 15.3701C18.5838 15.3516 18.425 15.3757 18.2821 15.4336C17.944 15.0763 17.3827 15.0316 16.9911 15.3439Z" fill="#FEDB73"/>
<path fill-rule="evenodd" clip-rule="evenodd" d="M32.5321 32.2729L32.6877 32.5959L32.3381 32.5161C31.5862 32.3445 30.8376 32.8149 30.6659 33.5668C30.4943 34.3187 30.9647 35.0673 31.7166 35.239L32.0664 35.3188L31.7859 35.5425C31.1829 36.0233 31.0839 36.9019 31.5648 37.5049C32.0456 38.1078 32.9242 38.2068 33.5272 37.726L33.8076 37.5024V37.861C33.8076 38.6322 34.4328 39.2574 35.204 39.2574C35.9753 39.2574 36.6005 38.6322 36.6005 37.861V37.5024L36.8808 37.726C37.4838 38.2068 38.3624 38.1078 38.8433 37.5049C39.3241 36.9019 39.2251 36.0233 38.6221 35.5425L38.3417 35.3188L38.6914 35.239C39.4433 35.0674 39.9137 34.3187 39.7421 33.5668C39.5704 32.8149 38.8218 32.3445 38.0699 32.5161L37.7203 32.5959L37.8759 32.2729C38.2105 31.578 37.9185 30.7435 37.2236 30.4089C36.5288 30.0743 35.6942 30.3663 35.3596 31.0611L35.204 31.3843L35.0484 31.0612C34.7138 30.3663 33.8792 30.0743 33.1844 30.4089C32.4895 30.7435 32.1975 31.5781 32.5321 32.2729Z" fill="white"/>
<path fill-rule="evenodd" clip-rule="evenodd" d="M33.8179 35.6901C33.715 35.6055 33.6357 35.4945 33.5894 35.3688L33.5876 35.3665C33.3622 35.0839 33.3734 34.6888 33.5942 34.4204C33.5813 34.2878 33.6038 34.1533 33.6599 34.0316L33.6602 34.0285C33.7007 33.6693 33.988 33.3978 34.334 33.3642C34.4187 33.2614 34.5297 33.1821 34.6555 33.1358L34.6576 33.134C34.9403 32.9087 35.3353 32.9199 35.6037 33.1407C35.7363 33.1278 35.8709 33.1503 35.9926 33.2064L35.9955 33.2067C36.3547 33.2472 36.6262 33.5345 36.6598 33.8804C36.7627 33.9651 36.842 34.0762 36.8883 34.202L36.8901 34.2041C37.1155 34.4868 37.1043 34.8818 36.8835 35.1502C36.8963 35.2828 36.8739 35.4173 36.8178 35.539L36.8174 35.542C36.7769 35.9012 36.4897 36.1727 36.1437 36.2063C36.059 36.3093 35.9478 36.3886 35.8219 36.435L35.82 36.4365C35.5374 36.6619 35.1424 36.6507 34.874 36.43C34.7414 36.4429 34.6068 36.4204 34.4851 36.3643L34.4822 36.364C34.1229 36.3235 33.8514 36.0361 33.8179 35.6901ZM35.0201 34.2342C34.9867 34.2608 34.9621 34.2942 34.9465 34.331C34.8195 34.3275 34.7089 34.4219 34.6944 34.5504C34.6896 34.5927 34.6959 34.6338 34.7108 34.6706C34.6185 34.758 34.607 34.903 34.6876 35.0042C34.7142 35.0375 34.7476 35.0621 34.7843 35.0776C34.7808 35.2047 34.8752 35.3154 35.0038 35.3299C35.0461 35.3346 35.0872 35.3284 35.1241 35.3135C35.2114 35.4058 35.3564 35.4173 35.4576 35.3366C35.4909 35.31 35.5155 35.2766 35.531 35.24C35.6581 35.2435 35.7687 35.1491 35.7832 35.0205C35.788 34.9782 35.7818 34.9371 35.7668 34.9002C35.8592 34.8129 35.8707 34.6679 35.79 34.5667C35.7634 34.5334 35.73 34.5088 35.6933 34.4932C35.6969 34.3662 35.6025 34.2555 35.4739 34.241C35.4316 34.2362 35.3905 34.2424 35.3536 34.2574C35.2663 34.165 35.1213 34.1535 35.0201 34.2342Z" fill="#FEDB73"/>
</g>
<defs>
<clipPath id="clip0_102_1222">
<rect width="40" height="39.2793" fill="white"/>
</clipPath>
</defs>
</svg>
