<svg width="111" height="109" viewBox="0 0 111 109" fill="none" xmlns="http://www.w3.org/2000/svg">
<g clip-path="url(#clip0_93_3861)">
<path fill-rule="evenodd" clip-rule="evenodd" d="M20.4253 21.5117L22.0967 24.9824L18.3411 24.1252C10.2645 22.2818 2.2228 27.3348 0.379374 35.4113C-1.46405 43.4879 3.58891 51.5296 11.6655 53.3731L15.4212 54.2303L12.4094 56.632C5.93252 61.7972 4.86914 71.235 10.0343 77.7119C15.1995 84.1888 24.6372 85.2521 31.1141 80.087L34.1258 77.6852V81.5374C34.1258 89.8216 40.8415 96.5374 49.1258 96.5374C57.4101 96.5374 64.1258 89.8216 64.1258 81.5374V77.6851L67.1376 80.087C73.6145 85.2521 83.0523 84.1888 88.2174 77.7119C93.3826 71.235 92.3192 61.7972 85.8423 56.632L82.8305 54.2302L86.5861 53.3731C94.6626 51.5296 99.7156 43.4879 97.8722 35.4113C96.0287 27.3348 87.987 22.2818 79.9104 24.1252L76.1549 24.9824L77.8263 21.5117C81.4207 14.0478 78.2839 5.08333 70.82 1.48892C63.3561 -2.10549 54.3916 1.03133 50.7972 8.4952L49.1258 11.9659L47.4544 8.4952C43.86 1.03133 34.8955 -2.10549 27.4316 1.48892C19.9678 5.08333 16.8309 14.0478 20.4253 21.5117Z" fill="white"/>
<path fill-rule="evenodd" clip-rule="evenodd" d="M34.2366 58.2206C33.1313 57.311 32.2795 56.1179 31.7814 54.7668L31.7625 54.7431C29.3415 51.7072 29.4617 47.4634 31.8337 44.5804C31.6954 43.1558 31.9367 41.7099 32.5398 40.4024L32.5432 40.3722C32.9779 36.5137 36.0638 33.5979 39.7795 33.2365C40.6891 32.1312 41.8823 31.2794 43.2334 30.7813L43.257 30.7625C46.2928 28.3415 50.5366 28.4617 53.4196 30.8337C54.8443 30.6952 56.2903 30.9366 57.5979 31.5398L57.6279 31.5432C61.4864 31.9779 64.4022 35.0637 64.7635 38.7794C65.8688 39.689 66.7206 40.8821 67.2187 42.2332L67.2377 42.2569C69.6586 45.2928 69.5384 49.5366 67.1664 52.4196C67.3048 53.8442 67.0634 55.2901 66.4603 56.5976L66.4569 56.6278C66.0222 60.4863 62.9364 63.4021 59.2206 63.7635C58.311 64.8688 57.1178 65.7206 55.7667 66.2187L55.7431 66.2375C52.7073 68.6585 48.4635 68.5383 45.5806 66.1663C44.1558 66.3048 42.7098 66.0634 41.4022 65.4602L41.3722 65.4568C37.5137 65.0221 34.5979 61.9363 34.2366 58.2206ZM47.1504 42.5794C46.7925 42.8648 46.528 43.2238 46.3613 43.6176C44.9967 43.5799 43.8077 44.5937 43.6521 45.975C43.6008 46.4298 43.6677 46.8707 43.8282 47.2671C42.8366 48.2053 42.7128 49.7629 43.5794 50.8497C43.8648 51.2075 44.2238 51.472 44.6176 51.6388C44.5799 53.0033 45.5937 54.1923 46.975 54.3479C47.4298 54.3992 47.8707 54.3323 48.2671 54.1718C49.2053 55.1634 50.7629 55.2873 51.8496 54.4206C52.2075 54.1352 52.472 53.7762 52.6388 53.3824C54.0033 53.4202 55.1923 52.4063 55.3479 51.0251C55.3992 50.5702 55.3323 50.1293 55.1718 49.733C56.1634 48.7948 56.2872 47.2371 55.4206 46.1504C55.1352 45.7925 54.7762 45.528 54.3824 45.3613C54.4202 43.9967 53.4063 42.8077 52.0251 42.6521C51.5702 42.6008 51.1293 42.6677 50.733 42.8282C49.7948 41.8367 48.2371 41.7128 47.1504 42.5794Z" fill="#FEDB73"/>
<path fill-rule="evenodd" clip-rule="evenodd" d="M90.2767 89.5573L90.7083 90.4537L89.7382 90.2323C87.6517 89.7561 85.5742 91.0614 85.098 93.1479C84.6218 95.2344 85.9272 97.3119 88.0136 97.7882L88.9841 98.0096L88.2059 98.6303C86.5326 99.9646 86.2579 102.403 87.5923 104.076C88.9266 105.749 91.3648 106.024 93.038 104.69L93.8161 104.069V105.064C93.8161 107.204 95.5511 108.939 97.6912 108.939C99.8314 108.939 101.566 107.204 101.566 105.064V104.069L102.344 104.69C104.018 106.024 106.456 105.749 107.79 104.076C109.124 102.403 108.85 99.9647 107.176 98.6303L106.398 98.0097L107.369 97.7883C109.455 97.312 110.76 95.2345 110.284 93.148C109.808 91.0616 107.73 89.7562 105.644 90.2324L104.674 90.4538L105.106 89.5573C106.034 87.6291 105.224 85.3132 103.296 84.3846C101.367 83.4561 99.0515 84.2664 98.1229 86.1946L97.6911 87.0913L97.2593 86.1947C96.3307 84.2665 94.0149 83.4561 92.0866 84.3847C90.1584 85.3133 89.3481 87.6291 90.2767 89.5573Z" fill="white"/>
<path fill-rule="evenodd" clip-rule="evenodd" d="M93.8445 99.0403C93.5591 98.8054 93.3391 98.4973 93.2104 98.1484L93.2054 98.1422C92.58 97.3579 92.6111 96.2616 93.2238 95.5168C93.1881 95.1488 93.2504 94.7753 93.4061 94.4376L93.4071 94.4294C93.5194 93.4325 94.3167 92.6792 95.2767 92.586C95.5117 92.3006 95.8198 92.0807 96.1686 91.952L96.1749 91.947C96.9592 91.3215 98.0557 91.3526 98.8005 91.9655C99.1684 91.9298 99.5417 91.9922 99.8794 92.1479L99.8874 92.1488C100.884 92.2611 101.637 93.0583 101.731 94.0182C102.016 94.2532 102.237 94.5616 102.365 94.9107L102.37 94.9166C102.995 95.7009 102.964 96.7972 102.352 97.542C102.387 97.9099 102.325 98.2833 102.169 98.6209L102.168 98.6291C102.056 99.6259 101.259 100.379 100.299 100.473C100.064 100.758 99.7553 100.978 99.406 101.107L99.4005 101.112C98.6162 101.737 97.52 101.706 96.7752 101.093C96.4072 101.129 96.0337 101.067 95.696 100.911L95.688 100.91C94.6911 100.798 93.9377 100 93.8445 99.0403ZM97.1807 94.9999C97.0882 95.0736 97.0199 95.1665 96.9768 95.2683C96.6243 95.2586 96.3172 95.5205 96.277 95.8773C96.2638 95.9948 96.2811 96.1087 96.3225 96.2111C96.0663 96.4534 96.0343 96.8558 96.2582 97.1366C96.332 97.2291 96.4247 97.2974 96.5265 97.3405C96.5168 97.693 96.7787 98.0001 97.1355 98.0403C97.253 98.0535 97.3669 98.0363 97.4694 97.9948C97.7117 98.2509 98.1141 98.2828 98.3948 98.059C98.4872 97.9853 98.5556 97.8925 98.5986 97.7908C98.9511 97.8006 99.2583 97.5387 99.2985 97.1818C99.3117 97.0644 99.2945 96.9505 99.253 96.8481C99.5092 96.6057 99.5412 96.2033 99.3173 95.9225C99.2436 95.8301 99.1508 95.7617 99.0491 95.7186C99.0588 95.3662 98.7969 95.059 98.4401 95.0188C98.3226 95.0056 98.2087 95.0229 98.1064 95.0643C97.864 94.808 97.4615 94.7759 97.1807 94.9999Z" fill="#FEDB73"/>
</g>
<defs>
<clipPath id="clip0_93_3861">
<rect width="111" height="109" fill="white"/>
</clipPath>
</defs>
</svg>
