<svg width="1200" height="750" viewBox="0 0 1200 750" fill="none" xmlns="http://www.w3.org/2000/svg">
<g opacity="0.8" clip-path="url(#clip0_86_3514)">
<rect width="1200" height="750" fill="#779A46"/>
<path fill-rule="evenodd" clip-rule="evenodd" d="M1270.94 724.265H918.45C914.168 720.299 910.085 716.157 906.218 711.853C900.404 712.745 894.477 713.398 888.455 713.8C887.07 717.358 885.481 720.849 883.697 724.265H583.279C575.899 710.13 571.841 694.709 571.841 678.564C571.841 642.384 592.221 609.839 624.692 587.259C632.545 540.632 680.939 504.742 739.466 504.742C745.417 504.742 751.264 505.113 756.973 505.829C786.427 482.141 828.06 467.371 874.21 467.371C889.559 467.371 904.408 469.005 918.475 472.057C955.147 438.102 1006.5 417 1063.33 417C1163.21 417 1246.14 482.159 1262.27 567.717C1292.65 585.561 1312.53 615.223 1312.53 648.799C1312.53 679.064 1296.38 706.149 1270.94 724.265Z" fill="#62894B"/>
<path fill-rule="evenodd" clip-rule="evenodd" d="M1014.83 594.782C987.273 570.072 933.448 564.132 891.578 567.088C869.519 568.645 853.297 578.899 836.92 589.251C823.013 598.042 808.995 606.903 791.197 610.568C778.127 613.259 763.685 613.511 749.319 613.761C728.957 614.116 708.748 614.468 692.82 621.762C677.598 628.733 670.405 637.947 662.934 647.516C657.184 654.881 651.269 662.458 641.402 669.384C624.762 681.065 609.434 677.154 594.879 673.44C578.497 669.261 563.095 665.331 547.904 684.164C534.944 708.762 569.69 739.482 600.051 766.325C609.715 774.869 618.934 783.02 626.03 790.456H1145.3C1160.05 768.774 1168.6 745.575 1162.97 730.068C1155.82 710.381 1128.3 700.093 1100.17 689.582C1076.07 680.573 1051.53 671.401 1039 656.006C1027.85 642.295 1028.45 633.73 1029.02 625.697C1029.65 616.818 1030.23 608.59 1014.83 594.782Z" fill="#83AD44"/>
<path fill-rule="evenodd" clip-rule="evenodd" d="M1104.01 510.126C1110.92 489.847 1133.22 475 1159.66 475C1175.28 475 1189.45 480.182 1199.86 488.605C1208.95 488.843 1217.52 495.99 1217.52 506.635V523.397L1217.52 523.441L1217.52 523.485V736.879C1217.52 746.82 1209.46 754.879 1199.52 754.879H973.106C972.946 754.88 972.785 754.881 972.624 754.881C972.464 754.881 972.303 754.88 972.143 754.879H956.565C950.795 754.879 946.081 752.384 942.92 748.666C919.894 738.461 904 716.76 904 691.639C904 660.026 929.168 633.831 962.046 629.143C964.876 589.115 999.473 557.439 1041.87 557.083C1046.01 530.44 1070.36 509.985 1099.78 509.985C1101.2 509.985 1102.62 510.032 1104.01 510.126Z" fill="#93BC59"/>
<path fill-rule="evenodd" clip-rule="evenodd" d="M11.5253 702.539V678.702H259.684C260.849 677.42 261.993 676.12 263.114 674.801C271.339 676.135 279.848 676.835 288.56 676.835C296.979 676.835 305.209 676.181 313.176 674.933C314.041 676.212 314.94 677.469 315.874 678.702H469.108C471.448 675.613 473.574 672.376 475.466 669.009C477.44 672.571 479.93 675.832 482.841 678.702H546.656C554.398 671.069 559.164 660.665 559.164 649.199C559.164 629.511 545.115 612.957 526.068 608.177C526.153 607.11 526.196 606.031 526.196 604.943C526.196 582.662 508.202 564.394 485.334 562.666C475.714 527.158 439.226 500.741 395.681 500.741C390.95 500.741 386.302 501.053 381.763 501.654C358.348 481.746 325.249 469.333 288.56 469.333C276.358 469.333 264.553 470.706 253.369 473.271C224.215 444.735 183.393 427 138.207 427C58.8053 427 -7.12168 481.761 -19.9442 553.666C-44.0996 568.663 -59.9059 593.592 -59.9059 621.81C-59.9059 660.982 -29.4456 693.816 11.5253 702.539Z" fill="#84AF44"/>
<path d="M46.1488 488.894C45.7403 487.073 46.8683 485.23 48.6682 484.778L50.1696 484.402C51.9696 483.95 53.7599 485.061 54.1684 486.883V486.883C54.5769 488.704 53.4489 490.547 51.649 490.999L50.1475 491.375C48.3476 491.827 46.5573 490.716 46.1488 488.894V488.894Z" fill="#FEDB73"/>
<path d="M122.788 463.658C122.379 461.837 123.507 459.994 125.307 459.542L126.808 459.166C128.608 458.714 130.399 459.825 130.807 461.647V461.647C131.216 463.468 130.088 465.311 128.288 465.763L126.786 466.139C124.986 466.591 123.196 465.48 122.788 463.658V463.658Z" fill="#FEDB73"/>
<path d="M131.723 525.645C132.131 523.824 131.003 521.981 129.203 521.529L127.702 521.153C125.902 520.701 124.112 521.812 123.703 523.634V523.634C123.295 525.455 124.423 527.298 126.223 527.75L127.724 528.126C129.524 528.578 131.314 527.467 131.723 525.645V525.645Z" fill="#FEDB73"/>
<path d="M187.585 468.697C187.994 466.476 186.584 464.143 184.437 463.486L184.193 463.411C182.046 462.754 179.974 464.023 179.566 466.244V466.244C179.157 468.466 180.567 470.799 182.714 471.456L182.958 471.53C185.105 472.187 187.177 470.919 187.585 468.697V468.697Z" fill="#FEDB73"/>
<path d="M290.153 516.928C290.562 515.106 289.434 513.264 287.634 512.812L286.132 512.436C284.332 511.984 282.542 513.095 282.134 514.916V514.916C281.725 516.738 282.853 518.581 284.653 519.032L286.154 519.409C287.954 519.86 289.745 518.75 290.153 516.928V516.928Z" fill="#FEDB73"/>
<path d="M222.608 538.383C222.199 536.162 223.608 533.828 225.756 533.172L226 533.097C228.147 532.44 230.219 533.709 230.627 535.93V535.93C231.036 538.152 229.626 540.485 227.479 541.142L227.235 541.216C225.088 541.873 223.016 540.605 222.608 538.383V538.383Z" fill="#FEDB73"/>
<path d="M343.269 566.324C343.677 564.502 342.549 562.66 340.749 562.208L339.248 561.832C337.448 561.38 335.658 562.491 335.249 564.312V564.312C334.841 566.134 335.969 567.977 337.768 568.428L339.27 568.805C341.07 569.256 342.86 568.146 343.269 566.324V566.324Z" fill="#FEDB73"/>
<path d="M399.131 536.299C399.54 534.478 398.412 532.635 396.612 532.183L395.11 531.807C393.311 531.355 391.52 532.466 391.112 534.288V534.288C390.703 536.109 391.831 537.952 393.631 538.404L395.133 538.78C396.932 539.232 398.723 538.121 399.131 536.299V536.299Z" fill="#FEDB73"/>
<path fill-rule="evenodd" clip-rule="evenodd" d="M172.182 934.706C205.927 948.071 251.954 954.75 281.408 934.8C312.756 913.567 291.18 861.091 318.403 835.668C349.859 806.292 419.935 822.135 440.819 785.931C459.446 753.641 435.205 708.423 406.685 682.631C376.955 655.743 321.514 670.694 287.981 647.709C265.251 632.129 276.733 593.532 253.992 577.966C231.832 562.798 199.02 575.128 172.182 568.449C134.838 559.154 101.204 518.056 65.2209 530.984C30.4581 543.474 46.8351 597.907 21.4084 622.619C-6.92213 650.153 -82.1199 640.434 -85.8422 677.801C-89.8827 718.363 -15.1738 729.265 7.26158 764.637C21.6527 787.327 -0.936658 821.572 17.9379 841.424C36.971 861.444 76.8706 848.718 101.173 863.415C130.983 881.443 139.307 921.685 172.182 934.706Z" fill="#60874C"/>
<path fill-rule="evenodd" clip-rule="evenodd" d="M353.709 775.484C347.533 776.315 341.011 775.631 334.717 773.195C315.528 765.767 305.736 744.856 312.845 726.489C315.329 720.072 319.547 714.814 324.803 711.006C318.9 701.146 317.203 689.975 321.115 679.868C326.431 666.132 340.731 657.92 357.395 657.264C356.352 647.916 358.114 638.298 363.058 629.671C375.957 607.166 405.631 599.936 429.337 613.523C437.333 618.106 443.629 624.472 447.967 631.76C461.114 626.419 476.498 625.939 491.081 631.585C509.299 638.637 522.006 653.599 526.482 670.661C535.429 669.508 544.66 670.482 553.508 673.906C567.996 679.515 578.82 690.677 584.77 704.359C591.656 703.671 598.879 704.564 605.871 707.271C628.461 716.016 640.09 740.377 631.843 761.682C623.597 782.988 598.599 793.17 576.009 784.425C572.873 783.212 569.949 781.697 567.259 779.931C550.965 794.196 528.461 799.378 508.009 791.461C507.567 791.29 507.128 791.113 506.693 790.932C498.869 795.772 490.005 798.216 481.195 797.692C464.839 816.507 434.019 822.92 404.838 811.623C397.768 808.887 391.327 805.317 385.633 801.123C383.015 802.032 380.192 802.507 377.254 802.463C363.936 802.263 353.298 791.464 353.493 778.342C353.508 777.374 353.581 776.42 353.709 775.484Z" fill="#96C05B"/>
<path fill-rule="evenodd" clip-rule="evenodd" d="M162.794 749.61H371.08C371.34 745.186 371.195 740.723 370.615 736.255C367.871 715.141 350.629 699.464 333.403 685.135C317.241 671.69 299.126 660.484 277.34 658.664C253.3 656.655 229.457 661.834 209.967 674.822C186.648 690.36 161.595 709.927 160.898 736.255C160.774 740.922 161.463 745.361 162.794 749.61Z" fill="#84AF44"/>
<path fill-rule="evenodd" clip-rule="evenodd" d="M297.156 749.609H429.299C429.464 747.407 429.373 745.185 429.004 742.96C427.263 732.447 416.324 724.642 405.396 717.507C395.142 710.813 383.649 705.233 369.828 704.327C354.576 703.327 339.45 705.905 327.084 712.372C312.29 720.109 296.396 729.851 295.954 742.96C295.875 745.284 296.312 747.494 297.156 749.609Z" fill="#84AF44"/>
<path d="M186.114 666.559C183.686 671.148 177.998 672.899 173.41 670.471C168.821 668.043 167.07 662.355 169.498 657.767C171.925 653.178 177.613 651.427 182.202 653.855C186.79 656.283 188.542 661.971 186.114 666.559Z" fill="white"/>
<path fill-rule="evenodd" clip-rule="evenodd" d="M171.14 667.921C170.877 667.695 170.467 667.834 170.396 668.174L168.503 677.122L168.503 677.122L161.893 689.615C161.541 690.28 161.795 691.105 162.46 691.456C163.125 691.808 163.95 691.554 164.301 690.889L170.912 678.396L177.271 671.771C177.498 671.535 177.386 671.142 177.069 671.061C174.946 670.519 172.977 669.496 171.313 668.07L171.14 667.921Z" fill="#D0CE7D"/>
<path fill-rule="evenodd" clip-rule="evenodd" d="M116.196 652.445C119.509 651.879 122.689 652.414 125.259 654.219C131.882 658.873 131.939 670.207 125.386 679.534C123.189 682.661 120.527 685.166 117.71 686.939C115.931 688.398 113.68 689.305 111.168 689.661C108.684 690.178 106.259 690.088 104.091 689.318C100.84 688.606 97.4863 687.151 94.3587 684.954C85.0314 678.401 81.2427 667.719 85.8964 661.095C87.6098 658.656 90.2288 657.108 93.3197 656.452C94.6492 650.473 98.2567 645.985 103.133 645.134C108.006 644.282 112.918 647.277 116.196 652.445Z" fill="white"/>
<path fill-rule="evenodd" clip-rule="evenodd" d="M104.652 685.908C103.969 685.875 103.499 686.585 103.797 687.201L111.658 703.421L111.658 703.421L134.479 834.062C134.734 835.522 136.125 836.5 137.586 836.244C139.046 835.989 140.024 834.598 139.768 833.138L116.947 702.497L118.85 684.5C118.918 683.857 118.268 683.381 117.676 683.638C113.716 685.358 109.413 686.142 105.101 685.93L104.652 685.908Z" fill="#D0CE7D"/>
<path d="M94.7776 716.99C97.6016 720.632 102.843 721.295 106.484 718.471C110.126 715.647 110.789 710.405 107.965 706.764C105.141 703.122 99.8994 702.46 96.2579 705.284C92.6163 708.108 91.9536 713.349 94.7776 716.99Z" fill="white"/>
<path fill-rule="evenodd" clip-rule="evenodd" d="M108.08 715.894C108.275 715.656 108.655 715.715 108.769 716.001L111.791 723.537L111.791 723.538L119.479 733.452C119.888 733.98 119.792 734.739 119.265 735.149C118.737 735.558 117.977 735.462 117.568 734.934L109.879 725.019L103.306 720.198C103.072 720.026 103.11 719.665 103.375 719.545C105.148 718.747 106.714 717.552 107.951 716.051L108.08 715.894Z" fill="#D0CE7D"/>
<path fill-rule="evenodd" clip-rule="evenodd" d="M152.171 634.979C151.303 634.783 150.541 635.589 150.786 636.445L157.231 659.003V831.62C157.231 833.549 158.796 835.114 160.725 835.114C162.655 835.114 164.22 833.549 164.22 831.62V659.003H164.22L170.691 636.353C170.922 635.545 170.196 634.788 169.379 634.985C163.916 636.304 158.224 636.346 152.742 635.108L152.171 634.979Z" fill="#D0CE7D"/>
<path d="M201.778 704.293C201.229 709.791 196.327 713.803 190.828 713.254C185.33 712.704 181.318 707.802 181.868 702.304C182.417 696.806 187.319 692.794 192.818 693.343C198.316 693.892 202.328 698.795 201.778 704.293Z" fill="white"/>
<path fill-rule="evenodd" clip-rule="evenodd" d="M187.567 711.652C187.216 711.536 186.869 711.837 186.935 712.2L188.665 721.781L188.665 721.781L181.544 793.055C181.465 793.852 182.046 794.563 182.843 794.642C183.64 794.722 184.35 794.14 184.43 793.344L191.551 722.069L195.157 712.984C195.286 712.66 195.017 712.317 194.672 712.365C192.362 712.684 190.01 712.466 187.797 711.729L187.567 711.652Z" fill="#D0CE7D"/>
<path d="M262.274 703.803C260.236 708.939 254.42 711.45 249.284 709.412C244.149 707.374 241.637 701.558 243.676 696.422C245.714 691.287 251.529 688.775 256.665 690.813C261.801 692.852 264.312 698.667 262.274 703.803Z" fill="white"/>
<path fill-rule="evenodd" clip-rule="evenodd" d="M246.588 706.977C246.283 706.768 245.866 706.962 245.829 707.33L244.862 717.017L244.862 717.017L218.441 783.596C218.146 784.34 218.51 785.183 219.254 785.478C219.998 785.774 220.841 785.41 221.137 784.665L247.558 718.087L253.521 710.341C253.733 710.065 253.569 709.662 253.224 709.613C250.915 709.285 248.713 708.43 246.788 707.114L246.588 706.977Z" fill="#D0CE7D"/>
<path d="M250.504 658.168C249.818 665.04 243.69 670.054 236.818 669.368C229.946 668.681 224.932 662.554 225.619 655.682C226.305 648.81 232.433 643.796 239.305 644.482C246.177 645.169 251.191 651.296 250.504 658.168Z" fill="white"/>
<path fill-rule="evenodd" clip-rule="evenodd" d="M232.742 667.366C232.303 667.22 231.869 667.597 231.951 668.051L234.114 680.026L225.214 769.109C225.114 770.105 225.841 770.993 226.837 771.093C227.833 771.192 228.721 770.465 228.82 769.469L237.721 680.386L242.228 669.03C242.389 668.625 242.054 668.197 241.622 668.257C238.735 668.655 235.795 668.384 233.03 667.462L232.742 667.366Z" fill="#D0CE7D"/>
<path fill-rule="evenodd" clip-rule="evenodd" d="M174.223 595.592C178.345 595.607 182.075 596.924 184.798 599.648C191.819 606.669 189.496 620.375 179.61 630.262C176.294 633.577 172.549 636.042 168.771 637.589C166.314 638.976 163.403 639.598 160.293 639.497C157.182 639.598 154.271 638.976 151.814 637.589C148.036 636.042 144.291 633.577 140.976 630.262C131.089 620.375 128.766 606.669 135.787 599.648C138.372 597.063 141.863 595.745 145.736 595.604C148.605 588.661 153.911 584 159.982 584C166.05 584 171.353 588.655 174.223 595.592Z" fill="white"/>
<path fill-rule="evenodd" clip-rule="evenodd" d="M724.984 760.267H487.012C478.826 749.53 474 736.328 474 722.055C474 686.055 504.701 656.871 542.573 656.871C547.14 656.871 551.603 657.295 555.92 658.105C568.888 640.341 588.619 629 610.718 629C641.952 629 668.457 651.656 677.82 683.081C679.014 682.991 680.219 682.945 681.435 682.945C708.892 682.945 731.15 706.292 731.15 735.092C731.15 744.221 728.914 752.803 724.984 760.267Z" fill="#93BC59"/>
</g>
<defs>
<clipPath id="clip0_86_3514">
<rect width="1200" height="750" fill="white"/>
</clipPath>
</defs>
</svg>
